<?xml version="1.0" standalone="no"?>
<!DOCTYPE svg PUBLIC "-//W3C//DTD SVG 20010904//EN"
 "http://www.w3.org/TR/2001/REC-SVG-20010904/DTD/svg10.dtd">
<svg version="1.0" xmlns="http://www.w3.org/2000/svg"
 width="1090.000000pt" height="1090.000000pt" viewBox="0 0 1090.000000 1090.000000"
 preserveAspectRatio="xMidYMid meet">
<metadata>
Created by potrace 1.11, written by Peter Selinger 2001-2013
</metadata>
<g transform="translate(0.000000,1090.000000) scale(0.100000,-0.100000)"
fill="#000000" stroke="none">
<path d="M5750 9029 c-529 -60 -948 -320 -1153 -716 -57 -111 -101 -240 -122
-357 -24 -139 -18 -434 11 -578 l6 -28 -174 0 c-180 -1 -228 -9 -270 -47 -29
-25 -34 -43 -84 -271 -75 -346 -72 -352 193 -352 171 0 201 -7 217 -51 10 -30
-318 -2069 -359 -2232 -112 -441 -362 -727 -731 -836 -289 -85 -695 -61 -929
56 -207 104 -359 296 -422 531 -23 86 -26 116 -26 267 0 143 3 183 21 250 47
174 146 322 263 392 144 86 357 83 403 -6 31 -58 21 -121 -33 -225 -92 -174
-102 -269 -41 -392 100 -204 400 -297 677 -209 255 80 423 326 423 620 0 385
-285 680 -748 772 -134 27 -376 24 -512 -6 -255 -56 -435 -154 -602 -329 -160
-168 -264 -375 -315 -629 -24 -122 -24 -422 0 -550 104 -555 502 -945 1120
-1093 230 -55 325 -65 637 -65 305 0 392 9 628 61 230 51 488 156 664 270 476
307 791 792 953 1469 45 187 40 159 175 1071 65 441 123 811 130 823 6 12 22
26 36 31 14 6 161 10 330 10 333 0 350 3 373 57 13 32 71 455 71 518 0 32 -6
47 -26 66 -25 23 -31 24 -232 30 -147 4 -227 11 -277 24 -205 51 -341 177
-390 361 -22 80 -22 277 -1 367 43 183 168 308 309 310 42 1 53 -3 73 -27 30
-35 30 -66 -2 -141 -59 -140 -67 -168 -67 -255 -1 -226 154 -377 435 -426 106
-19 246 -14 343 11 218 56 374 211 446 445 35 111 33 283 -4 396 -125 381
-607 629 -1209 623 -73 -1 -167 -5 -208 -10z"/>
<path d="M8490 6085 c-149 -30 -270 -91 -410 -206 -165 -135 -200 -159 -237
-159 -51 0 -77 33 -108 136 -36 125 -50 151 -87 170 -44 24 -194 30 -312 14
-192 -26 -502 -115 -754 -216 -241 -97 -366 -174 -402 -250 -43 -88 -8 -141
127 -199 111 -46 137 -60 179 -98 56 -48 84 -117 84 -204 0 -72 -308 -2231
-336 -2353 -36 -158 -145 -304 -275 -367 -99 -49 -185 -66 -309 -60 -125 5
-204 31 -264 87 -36 34 -40 42 -44 98 -4 55 -2 63 21 86 31 31 63 33 151 10
92 -24 207 -16 282 21 234 115 309 449 138 618 -80 79 -193 117 -350 117 -332
0 -582 -202 -648 -522 -38 -182 -6 -386 82 -533 107 -179 305 -312 555 -375
151 -38 261 -50 452 -50 446 1 788 125 1043 380 219 220 371 547 437 940 31
185 35 187 235 114 69 -26 86 -28 225 -28 109 0 173 4 235 18 624 135 1121
712 1251 1451 30 170 33 469 6 614 -80 423 -304 680 -654 747 -91 17 -225 17
-313 -1z m-329 -677 c78 -52 118 -200 118 -433 1 -399 -111 -743 -304 -940
-107 -108 -213 -151 -273 -109 -74 51 -74 150 -3 651 28 199 62 404 75 457 46
181 135 328 225 376 50 27 120 26 162 -2z"/>
</g>
</svg>
