<?xml version="1.0" standalone="no"?>
<!DOCTYPE svg PUBLIC "-//W3C//DTD SVG 20010904//EN"
 "http://www.w3.org/TR/2001/REC-SVG-20010904/DTD/svg10.dtd">
<svg version="1.0" xmlns="http://www.w3.org/2000/svg"
 width="822.000000pt" height="822.000000pt" viewBox="0 0 822.000000 822.000000"
 preserveAspectRatio="xMidYMid meet">
<metadata>
Created by potrace 1.11, written by Peter Selinger 2001-2013
</metadata>
<g transform="translate(0.000000,822.000000) scale(0.100000,-0.100000)"
fill="#000000" stroke="none">
<path d="M4058 6925 c-1 -1 -35 -6 -74 -9 -40 -4 -98 -11 -130 -17 -33 -5 -77
-12 -99 -15 -22 -3 -87 -17 -145 -31 -58 -13 -112 -26 -120 -28 -8 -2 -42 -10
-75 -19 -33 -9 -67 -19 -75 -21 -79 -20 -300 -96 -429 -147 l-74 -29 -56 21
c-31 12 -65 26 -76 31 -90 40 -377 119 -500 138 -66 10 -99 14 -235 26 -30 2
-89 8 -130 12 -41 3 -136 6 -210 6 -156 -1 -256 -19 -346 -63 -72 -35 -100
-81 -113 -185 -9 -75 -7 -250 4 -370 3 -44 8 -100 11 -124 2 -24 6 -60 8 -80
3 -20 8 -63 11 -96 3 -33 8 -67 10 -75 2 -8 7 -40 10 -70 3 -30 8 -66 10 -80
2 -14 9 -54 14 -90 6 -36 13 -83 16 -105 4 -22 8 -52 11 -67 2 -16 6 -43 9
-60 11 -72 27 -165 35 -201 8 -35 1 -55 -82 -235 -49 -108 -96 -210 -103 -227
-56 -125 -133 -354 -167 -494 -11 -47 -22 -95 -25 -106 -14 -60 -63 -360 -68
-420 -4 -47 -16 -91 -36 -134 -17 -35 -37 -82 -46 -105 -8 -22 -22 -56 -30
-75 -32 -71 -88 -279 -113 -416 -25 -132 -22 -379 4 -475 38 -138 105 -251
219 -369 57 -59 174 -166 210 -190 12 -8 24 -18 27 -21 9 -11 162 -116 235
-160 208 -127 452 -242 735 -348 128 -47 454 -148 550 -170 25 -6 63 -15 85
-21 22 -5 51 -12 65 -15 14 -3 57 -12 95 -20 39 -8 84 -17 100 -20 55 -10 210
-37 235 -41 61 -9 136 -19 150 -20 20 -2 157 -16 195 -21 223 -26 846 -26
1110 1 87 8 152 15 200 21 85 9 363 54 439 70 39 9 82 18 96 20 14 2 63 14
110 25 47 12 92 22 100 24 8 2 44 11 80 20 36 8 73 18 83 20 63 15 266 75 397
118 85 28 157 51 160 52 14 2 275 108 345 140 78 36 241 116 280 139 11 6 47
27 80 45 75 44 250 162 290 197 17 14 51 42 78 62 71 55 256 248 311 327 147
208 172 440 81 735 -32 102 -162 346 -211 395 -10 10 -17 39 -19 83 -2 37 -6
117 -10 178 -3 62 -7 132 -10 155 -2 24 -7 76 -10 114 -6 75 -27 230 -41 310
-9 49 -65 229 -75 239 -5 6 -9 17 -9 24 0 8 -43 101 -95 206 -95 191 -114 227
-170 321 -16 28 -28 53 -27 58 9 29 123 482 126 501 2 13 18 84 35 158 16 73
33 148 36 166 3 18 12 63 19 100 8 37 17 84 20 104 3 21 12 75 20 121 28 158
39 353 24 422 -13 57 -53 104 -112 130 -47 21 -62 23 -211 20 -88 -2 -171 -5
-185 -8 -14 -3 -45 -8 -70 -11 -25 -3 -83 -13 -130 -22 -47 -8 -98 -18 -115
-20 -16 -3 -108 -24 -203 -45 -95 -22 -181 -42 -190 -44 -9 -2 -46 -11 -82
-20 -36 -9 -69 -18 -75 -20 -78 -18 -399 -106 -426 -116 -22 -9 -48 -1 -167
50 -323 138 -698 244 -982 276 -59 7 -386 16 -392 10z"/>
</g>
</svg>
