<svg viewBox="0 0 498 487" fill="none" xmlns="http://www.w3.org/2000/svg"><path d="M305.737 370.954h-112.64v100.937h112.64V370.954z" fill="#A5C3D1"/><path opacity=".1" d="M305.737 370.954h-112.64v36.571h112.64v-36.571zM482.743 65.217V40.349c0-13.166-11.703-24.869-24.869-24.869H39.497c-13.166 0-24.87 11.703-24.87 24.869v23.406h468.115v1.462h.001z" fill="#030303"/><path d="M14.629 284.646v46.811c0 21.943 17.554 39.497 39.497 39.497h387.657c21.943 0 39.497-17.554 39.497-39.497v-46.811H14.629z" fill="#E09C49"/><path d="M457.874 385.583H39.497C17.554 385.583 0 368.029 0 346.086V40.349C0 18.406 17.554.851 39.497.851h418.377c21.943 0 39.497 17.554 39.497 39.497v304.274c0 23.407-17.554 40.961-39.497 40.961zM39.497 30.109c-5.851 0-10.24 4.389-10.24 10.24v304.274c0 5.851 4.389 10.24 10.24 10.24h418.377c5.851 0 10.24-4.389 10.24-10.24V40.349c0-5.851-4.389-10.24-10.24-10.24H39.497z" fill="#030303"/><path d="M482.743 299.274H14.629C5.851 299.274 0 293.423 0 284.646c0-8.777 5.851-14.629 14.629-14.629h468.114c8.777 0 14.629 5.851 14.629 14.629-.001 8.777-5.852 14.628-14.629 14.628z" fill="#030303"/><path d="M267.703 341.697h-39.497c-8.777 0-14.629-5.851-14.629-14.629 0-8.777 5.851-14.629 14.629-14.629h39.497c8.777 0 14.629 5.851 14.629 14.629-.001 8.778-5.852 14.629-14.629 14.629zM415.451 341.697c-4.389 0-7.314-1.463-10.24-4.389s-4.389-5.851-4.389-10.24 1.463-7.314 4.389-10.24c5.851-5.851 14.629-5.851 20.48 0 2.926 2.926 4.389 5.851 4.389 10.24s-1.463 7.314-4.389 10.24-5.851 4.389-10.24 4.389z" fill="#fff"/><path d="M304.274 486.52h-112.64c-8.777 0-14.629-5.851-14.629-14.629V370.954c0-8.777 5.851-14.629 14.629-14.629h112.64c8.777 0 14.629 5.851 14.629 14.629v100.937c0 7.315-5.852 14.629-14.629 14.629zm-96.548-29.257h83.383v-71.68h-83.383v71.68z" fill="#030303"/><path d="M346.697 486.52H150.674c-8.777 0-14.629-5.851-14.629-14.629 0-8.778 5.851-14.629 14.629-14.629h196.023c8.777 0 14.629 5.851 14.629 14.629 0 8.778-5.852 14.629-14.629 14.629z" fill="#030303"/><path d="M175.308 126.288c-7.564 0-14.012 4.588-14.012 12.276 0 8.928 5.952 10.292 5.952 15.872 0 6.572-7.688 15.624-15.004 15.624-1.984 0-2.48-.992-2.108-3.348l4.96-33.48c.372-2.604-1.24-3.72-2.728-3.72l-20.708-.124c-1.86 0-2.976.744-3.224 2.728l-.744 5.58c-.124 1.488-.248 2.108-.372 3.224-.868 7.316-7.812 29.14-16.244 29.14-1.984 0-2.356-.992-1.984-3.348l4.34-27.032c.62-3.968 1.86-12.028-7.936-12.028-5.456 0-18.848 3.72-25.916 7.192-4.34 1.984-6.2 3.72-6.2 5.828 0 4.712 11.036 1.736 9.796 12.152L80.2 178.988c-.62 5.58-1.736 15.252 12.152 15.252 10.044 0 20.46-5.828 27.776-15.872.744-.992 1.364-1.612 2.232-1.612.372 0 .744.124.744.992l-.124 1.24c-.62 5.58-1.488 15.252 10.912 15.252 25.668 0 55.056-28.148 55.056-53.32 0-8.556-4.836-14.632-13.64-14.632zM292.648 126.288c-7.564 0-14.012 4.588-14.012 12.276 0 8.928 5.952 10.292 5.952 15.872 0 6.572-7.688 15.624-15.004 15.624-1.984 0-2.48-.992-2.108-3.348l4.96-33.48c.372-2.604-1.24-3.72-2.728-3.72L249 129.388c-1.86 0-2.976.744-3.224 2.728l-.744 5.58c-.124 1.488-.248 2.108-.372 3.224-.868 7.316-7.812 29.14-16.244 29.14-1.984 0-2.356-.992-1.984-3.348l4.34-27.032c.62-3.968 1.86-12.028-7.936-12.028-5.456 0-18.848 3.72-25.916 7.192-4.34 1.984-6.2 3.72-6.2 5.828 0 4.712 11.036 1.736 9.796 12.152l-2.976 26.164c-.62 5.58-1.736 15.252 12.152 15.252 10.044 0 20.46-5.828 27.776-15.872.744-.992 1.364-1.612 2.232-1.612.372 0 .744.124.744.992l-.124 1.24c-.62 5.58-1.488 15.252 10.912 15.252 25.668 0 55.056-28.148 55.056-53.32 0-8.556-4.836-14.632-13.64-14.632zM409.988 126.288c-7.564 0-14.012 4.588-14.012 12.276 0 8.928 5.952 10.292 5.952 15.872 0 6.572-7.688 15.624-15.004 15.624-1.984 0-2.48-.992-2.108-3.348l4.96-33.48c.372-2.604-1.24-3.72-2.728-3.72l-20.708-.124c-1.86 0-2.976.744-3.224 2.728l-.744 5.58c-.124 1.488-.248 2.108-.372 3.224-.868 7.316-7.812 29.14-16.244 29.14-1.984 0-2.356-.992-1.984-3.348l4.34-27.032c.62-3.968 1.86-12.028-7.936-12.028-5.456 0-18.848 3.72-25.916 7.192-4.34 1.984-6.2 3.72-6.2 5.828 0 4.712 11.036 1.736 9.796 12.152l-2.976 26.164c-.62 5.58-1.736 15.252 12.152 15.252 10.044 0 20.46-5.828 27.776-15.872.744-.992 1.364-1.612 2.232-1.612.372 0 .744.124.744.992l-.124 1.24c-.62 5.58-1.488 15.252 10.912 15.252 25.668 0 55.056-28.148 55.056-53.32 0-8.556-4.836-14.632-13.64-14.632z" fill="#000"/></svg>
